<svg width="186" height="94" viewBox="0 0 186 94" fill="none" xmlns="http://www.w3.org/2000/svg">
<path d="M34.8618 36.8881C36.3624 38.318 37.1096 40.1944 37.1096 42.5112C37.1096 45.2865 36.4166 47.7361 35.0306 49.8719C33.6445 52.0077 31.8547 53.8057 29.6491 55.2597C27.4495 56.7137 24.9969 57.8299 22.2971 58.6022C19.5973 59.3745 16.9277 59.7606 14.2942 59.7606C9.75649 59.7606 6.23716 58.4634 3.7423 55.8751C1.24743 53.2868 0 49.7392 0 45.2383C0 42.3302 0.614677 39.4221 1.838 36.514C3.06133 33.6059 4.7065 30.8245 6.7735 28.1638C8.8405 25.5031 11.245 23.0415 13.9929 20.7669C16.7409 18.4923 19.6335 16.5194 22.6768 14.8361C25.72 13.1528 28.8054 11.8375 31.9391 10.8842C35.0727 9.93095 38.0678 9.45432 40.9302 9.45432C42.244 9.45432 43.5155 9.59308 44.7449 9.86458C45.9682 10.1361 47.0589 10.5826 48.0111 11.1919C48.9632 11.8073 49.7225 12.6339 50.295 13.6777C50.8615 14.7215 51.1447 16.0186 51.1447 17.5632C51.1447 19.2465 50.7349 20.7548 49.9214 22.0942C49.1018 23.4336 48.0472 24.5619 46.7576 25.4669L43.7626 23.1802C44.787 22.0218 45.5885 20.7247 46.1791 19.2948C46.7697 17.8648 47.065 16.441 47.065 15.0352C47.065 14.0336 46.848 13.2312 46.4202 12.6158C45.9863 12.0004 45.4439 11.5238 44.787 11.1859C44.1302 10.848 43.4492 10.6067 42.7441 10.4679C42.0391 10.3292 41.4184 10.2628 40.87 10.2628C38.5077 10.2628 36.0369 10.7877 33.4457 11.8315C30.8604 12.8752 28.3053 14.2991 25.7863 16.091C23.2673 17.889 20.8689 19.9886 18.603 22.3959C16.3311 24.8032 14.3364 27.3976 12.6129 30.1669C10.8894 32.9422 9.51544 35.8021 8.49098 38.7584C7.47254 41.7148 6.96031 44.6229 6.96031 47.4827C6.96031 49.166 7.15315 50.6985 7.53883 52.0861C7.92451 53.4738 8.50303 54.6745 9.27439 55.7001C10.0457 56.7258 10.9979 57.5162 12.1369 58.0894C13.2698 58.6565 14.5895 58.9401 16.084 58.9401C18.0365 58.9401 19.9408 58.5057 21.8029 57.6429C23.6651 56.7801 25.3343 55.6096 26.8108 54.1315C28.2872 52.6533 29.4683 50.9519 30.3542 49.0212C31.24 47.0905 31.68 45.0814 31.68 42.9878C31.68 41.1235 31.2943 39.5548 30.5229 38.2818L34.8799 36.882L34.8618 36.8881Z" fill="#4A708B"/>
<path d="M73.9059 42.9637C73.0923 44.0255 72.1281 44.9788 71.0073 45.8355C69.8864 46.6923 68.657 47.1146 67.3192 47.1146C66.3851 47.1146 65.5716 46.9095 64.8786 46.5052C64.1856 46.101 63.5588 45.5278 62.9863 44.7978C62.4982 46.8371 61.6967 48.7557 60.5758 50.5657C59.455 52.3757 58.1051 53.9685 56.5202 55.3321C54.9353 56.6956 53.1636 57.7756 51.2111 58.566C49.2585 59.3624 47.2277 59.7545 45.1125 59.7545C42.8768 59.7545 41.087 59.115 39.7431 57.8299C38.3993 56.5508 37.7303 54.7891 37.7303 52.5507C37.7303 50.3123 38.2787 48.3273 39.3755 46.3544C40.4723 44.3815 41.8945 42.6499 43.6481 41.1657C45.3957 39.6815 47.3302 38.499 49.4454 37.6241C51.5606 36.7493 53.6336 36.3088 55.6644 36.3088C57.858 36.3088 59.5875 36.9001 60.847 38.0766C62.1065 39.2592 62.8779 40.683 63.1671 42.3543C63.372 43.573 63.83 44.5504 64.5411 45.2865C65.2522 46.0165 66.1802 46.3846 67.3192 46.3846C68.4582 46.3846 69.4525 46.0588 70.4287 45.4072C71.405 44.7556 72.4415 43.7782 73.5383 42.475L73.9059 42.9637ZM45.5464 59.0245C46.5648 59.0245 47.5772 58.6806 48.5957 57.9868C49.6141 57.2929 50.5904 56.4 51.5244 55.3019C52.4585 54.2038 53.3263 52.961 54.1157 51.5793C54.9051 50.1977 55.5982 48.81 56.1887 47.4284C56.7793 46.0467 57.2373 44.7194 57.5627 43.4584C57.8881 42.1974 58.0508 41.1355 58.0508 40.2848C58.0508 39.2652 57.8399 38.4748 57.4121 37.9017C56.9842 37.3345 56.3032 37.0449 55.3692 37.0449C54.3507 37.0449 53.3323 37.3888 52.3199 38.0827C51.3014 38.7765 50.3252 39.6694 49.3911 40.7675C48.4571 41.8656 47.5893 43.1085 46.7998 44.4901C46.0044 45.8717 45.3174 47.2594 44.7268 48.6411C44.1362 50.0227 43.6782 51.35 43.3528 52.611C43.0274 53.872 42.8647 54.9339 42.8647 55.7846C42.8647 56.8042 43.0756 57.5946 43.5035 58.1678C43.9314 58.7409 44.6123 59.0245 45.5464 59.0245Z" fill="#4A708B"/>
<path d="M75.1351 48.2791C75.7016 47.549 76.5272 46.5052 77.6059 45.1658C78.6846 43.8204 79.914 42.4991 81.294 41.1959C82.674 39.8927 84.1625 38.7524 85.7474 37.7749C87.3323 36.7975 88.9172 36.3088 90.5081 36.3088C91.8519 36.3088 92.8643 36.6829 93.5574 37.4371C94.2504 38.1913 94.5939 39.1144 94.5939 40.2185C94.5939 41.6001 94.154 43.018 93.2802 44.466C92.4064 45.914 91.4422 47.356 90.3815 48.804C89.3209 50.252 88.3567 51.6336 87.4829 52.9549C86.6091 54.2762 86.1692 55.5131 86.1692 56.6474C86.1692 57.1361 86.2897 57.5343 86.5368 57.8359C86.7778 58.1436 87.1876 58.2945 87.7541 58.2945C88.3206 58.2945 89.2667 57.8601 90.5924 56.9792C91.9122 56.1043 93.696 54.4874 95.9317 52.1223C97.6793 50.252 99.2883 48.4299 100.753 46.6561C102.217 44.8823 103.314 43.5549 104.049 42.656L104.658 42.9637C103.597 44.2246 102.301 45.7933 100.753 47.6637C99.204 49.534 97.5588 51.3862 95.8112 53.2204C93.696 55.4588 91.8941 57.0456 90.4117 57.9868C88.9292 58.9219 87.3925 59.3925 85.8076 59.3925C84.2227 59.3925 83.1259 58.9642 82.3907 58.1135C81.6616 57.2567 81.294 56.2793 81.294 55.1812C81.294 53.7996 81.7278 52.3697 82.6077 50.9036C83.4815 49.4375 84.4457 48.0015 85.5063 46.5957C86.5609 45.19 87.5311 43.8566 88.4049 42.5956C89.2787 41.3346 89.7186 40.2366 89.7186 39.2954C89.7186 38.8489 89.574 38.4809 89.2908 38.1973C89.0075 37.9137 88.5797 37.7689 88.0072 37.7689C87.1937 37.7689 86.2355 38.143 85.1387 38.8972C84.0419 39.6513 82.8789 40.6287 81.6616 41.8294C80.4443 43.03 79.2029 44.3936 77.9434 45.92C76.6839 47.4465 75.4907 48.9729 74.3758 50.4993C73.255 52.0258 72.2486 53.504 71.3567 54.9278C70.4648 56.3517 69.7477 57.5765 69.2234 58.5901L63.0646 58.7711C65.222 55.1873 67.3854 51.6336 69.5609 48.1162C71.7363 44.5927 73.8817 40.9787 75.9969 37.2742L82.9512 37.0268L75.0206 48.1403L75.1412 48.261L75.1351 48.2791Z" fill="#4A708B"/>
<path d="M123.58 33.8231C121.152 37.7448 118.741 41.9682 116.349 46.4872C113.95 51.0062 111.401 55.489 108.695 59.9416C105.99 64.3942 103.097 68.6779 100.018 72.7927C96.9383 76.9014 93.5334 80.5335 89.7972 83.6769C86.0669 86.8203 81.945 89.3302 77.4313 91.2005C72.9177 93.0709 67.8978 94.006 62.3597 94.006C60.4915 94.006 58.5029 93.8009 56.3877 93.3967C54.2725 92.9924 52.3441 92.3227 50.6025 91.3876C48.8609 90.4524 47.4146 89.2035 46.2636 87.6469C45.1126 86.0903 44.5341 84.1234 44.5341 81.7583C44.5341 79.9483 44.9258 78.3615 45.7031 76.9919C46.4805 75.6223 47.511 74.47 48.7826 73.5348C50.0601 72.5996 51.5064 71.8816 53.1215 71.3869C54.7425 70.8861 56.3877 70.6388 58.069 70.6388C58.9428 70.6388 59.7322 70.6689 60.4494 70.7353C61.1665 70.7956 61.8053 70.8922 62.3597 71.0128V71.761C59.3707 71.948 56.9602 73.0039 55.1282 74.9406C53.2962 76.8712 52.3742 79.3329 52.3742 82.3194C52.3742 85.5593 53.2781 88.1295 55.08 90.03C56.8879 91.9306 59.8106 92.8778 63.8542 92.8778C67.5242 92.8778 71.0435 91.8642 74.4001 89.843C77.7628 87.8158 80.9808 85.1551 84.0602 81.8548C87.1396 78.5546 90.0684 74.8018 92.8344 70.5965C95.6065 66.3913 98.246 62.0955 100.771 57.7032C103.29 53.3109 105.7 49.0272 108.002 44.8521C110.304 40.677 112.48 37.0027 114.535 33.8291H105.574L106.508 32.1458H115.656C117.458 29.0326 119.591 25.6057 122.05 21.865C124.508 18.1243 127.274 14.637 130.354 11.397C133.433 8.15712 136.808 5.44814 140.478 3.27009C144.148 1.09204 148.065 0 152.235 0C153.543 0 154.802 0.156868 156.014 0.46457C157.225 0.778306 158.316 1.24288 159.28 1.86431C160.244 2.48575 161.021 3.28216 161.612 4.2475C162.202 5.21284 162.498 6.34711 162.498 7.65635C162.498 9.90077 161.69 11.578 160.069 12.7003C158.448 13.8225 156.55 14.3836 154.374 14.3836C153.874 14.3836 153.314 14.3232 152.693 14.1965C153.254 13.0743 153.718 11.8918 154.091 10.6429C154.465 9.39397 154.652 8.06059 154.652 6.62465C154.652 4.82067 154.278 3.44506 153.531 2.51592C152.783 1.58074 151.789 1.11617 150.542 1.11617C148.987 1.11617 147.336 1.72555 145.594 2.93825C143.853 4.15096 142.141 5.72567 140.46 7.65635C138.778 9.58703 137.115 11.7349 135.464 14.106C133.813 16.4772 132.306 18.8121 130.938 21.1108C129.57 23.4155 128.341 25.5514 127.25 27.5122C126.16 29.473 125.274 31.0176 124.593 32.1398H141.279L140.255 33.8231H123.568H123.58Z" fill="#4A708B"/>
<path d="M147.342 37.2863C145.431 40.2969 143.78 42.8732 142.4 45.009C141.02 47.1448 139.887 48.9669 139.013 50.4752C138.14 51.9836 137.489 53.2144 137.061 54.1676C136.633 55.127 136.422 55.9053 136.422 56.5207C136.422 57.0094 136.512 57.4076 136.699 57.7092C136.886 58.0109 137.157 58.1678 137.525 58.1678C138.338 58.1678 139.483 57.6972 140.972 56.762C142.454 55.8268 144.316 54.2159 146.552 51.9353C147.444 51.0001 148.324 50.071 149.174 49.1539C150.029 48.2368 150.831 47.3499 151.584 46.4992C152.337 45.6425 153.006 44.8702 153.597 44.1764C154.187 43.4825 154.663 42.9335 155.031 42.5293L155.579 42.8973C155.091 43.5489 154.489 44.291 153.778 45.1236C153.067 45.9562 152.301 46.8311 151.494 47.7481C150.68 48.6652 149.849 49.5702 148.993 50.4632C148.137 51.3621 147.305 52.2128 146.492 53.0273C144.136 55.3864 142.111 57.0395 140.423 57.9747C138.736 58.9099 137.181 59.3805 135.759 59.3805C134.415 59.3805 133.379 59.0125 132.65 58.2824C131.92 57.5524 131.553 56.5931 131.553 55.4105C131.553 54.596 131.704 53.7513 132.011 52.8765C132.318 52.0017 132.836 50.9157 133.566 49.6064C134.295 48.3032 135.271 46.6863 136.494 44.7495C137.712 42.8189 139.236 40.4236 141.068 37.5759L147.348 37.2682L147.342 37.2863ZM153.012 24.7067C153.012 25.6418 152.627 26.6313 151.855 27.6691C151.084 28.7068 150.18 29.6782 149.143 30.5711C148.107 31.4641 147.101 32.2001 146.124 32.7673C145.148 33.3404 144.437 33.624 143.991 33.624C143.744 33.624 143.623 33.4792 143.623 33.1956C143.623 32.9905 143.858 32.6949 144.322 32.3087C144.786 31.9226 145.329 31.4339 145.937 30.8426C146.546 30.2513 147.149 29.5877 147.739 28.8576C148.33 28.1276 148.728 27.3131 148.927 26.4141C149.005 26.0883 149.107 25.7142 149.234 25.2859C149.354 24.8575 149.499 24.4593 149.662 24.0973C149.824 23.7293 150.029 23.4155 150.27 23.1501C150.511 22.8846 150.777 22.7519 151.066 22.7519C151.674 22.7519 152.151 22.9329 152.5 23.3009C152.844 23.6689 153.018 24.1335 153.018 24.7067H153.012Z" fill="#4A708B"/>
<path d="M185.994 42.9637C185.18 44.0255 184.216 44.9788 183.095 45.8355C181.975 46.6923 180.745 47.1146 179.407 47.1146C178.473 47.1146 177.66 46.9095 176.967 46.5052C176.274 46.101 175.647 45.5278 175.074 44.7978C174.586 46.8371 173.785 48.7557 172.664 50.5657C171.543 52.3757 170.193 53.9685 168.608 55.3321C167.023 56.6956 165.252 57.7756 163.299 58.566C161.347 59.3624 159.316 59.7545 157.201 59.7545C154.965 59.7545 153.175 59.115 151.831 57.8299C150.487 56.5508 149.818 54.7891 149.818 52.5507C149.818 50.3123 150.367 48.3273 151.464 46.3544C152.56 44.3815 153.983 42.6499 155.73 41.1657C157.478 39.6815 159.412 38.499 161.527 37.6241C163.643 36.7493 165.716 36.3088 167.747 36.3088C169.94 36.3088 171.67 36.9001 172.929 38.0766C174.189 39.2592 174.96 40.683 175.249 42.3543C175.454 43.573 175.912 44.5504 176.623 45.2865C177.334 46.0165 178.262 46.3846 179.401 46.3846C180.54 46.3846 181.535 46.0588 182.511 45.4072C183.487 44.7556 184.524 43.7782 185.62 42.475L185.988 42.9637H185.994ZM157.635 59.0245C158.653 59.0245 159.665 58.6806 160.684 57.9868C161.702 57.2929 162.678 56.4 163.613 55.3019C164.547 54.2038 165.414 52.961 166.204 51.5793C166.993 50.1977 167.686 48.81 168.277 47.4284C168.867 46.0467 169.325 44.7194 169.651 43.4584C169.976 42.1974 170.139 41.1355 170.139 40.2848C170.139 39.2652 169.928 38.4748 169.5 37.9017C169.072 37.3345 168.391 37.0449 167.457 37.0449C166.439 37.0449 165.42 37.3888 164.408 38.0827C163.39 38.7765 162.413 39.6694 161.479 40.7675C160.545 41.8656 159.677 43.1085 158.888 44.4901C158.093 45.8717 157.406 47.2594 156.815 48.6411C156.224 50.0227 155.766 51.35 155.441 52.611C155.116 53.872 154.953 54.9339 154.953 55.7846C154.953 56.8042 155.164 57.5946 155.592 58.1678C156.019 58.7409 156.7 59.0245 157.635 59.0245Z" fill="#4A708B"/>
</svg>
